<?xml version="1.0" encoding="UTF-8" standalone="no"?>
<!DOCTYPE svg PUBLIC "-//W3C//DTD SVG 1.1//EN"
 "http://www.w3.org/Graphics/SVG/1.1/DTD/svg11.dtd">
<!-- Generated by graphviz version 14.1.4 (20260321.0153)
 -->
<!-- Pages: 1 -->
<svg width="3266pt" height="375pt"
 viewBox="0.00 0.00 3266.00 375.00" xmlns="http://www.w3.org/2000/svg" xmlns:xlink="http://www.w3.org/1999/xlink">
<g id="graph0" class="graph" transform="scale(1 1) rotate(0) translate(4 371)">
<polygon fill="#1e1e2e" stroke="none" points="-4,4 -4,-371 3261.75,-371 3261.75,4 -4,4"/>
<!-- 1387435552848 -->
<g id="node1" class="node">
<title>1387435552848</title>
<polygon fill="#313244" stroke="#89b4fa" points="1339,-146.5 1339,-182.5 1562.5,-182.5 1562.5,-146.5 1339,-146.5"/>
<text xml:space="preserve" text-anchor="middle" x="1353.75" y="-161.05" font-family="Courier,monospace" font-size="11.00" fill="#cdd6f4">w1</text>
<polyline fill="none" stroke="#89b4fa" points="1368.5,-147 1368.5,-182.5"/>
<text xml:space="preserve" text-anchor="middle" x="1417" y="-161.05" font-family="Courier,monospace" font-size="11.00" fill="#cdd6f4">data=&#45;0.8297</text>
<polyline fill="none" stroke="#89b4fa" points="1465.5,-147 1465.5,-182.5"/>
<text xml:space="preserve" text-anchor="middle" x="1514" y="-161.05" font-family="Courier,monospace" font-size="11.00" fill="#cdd6f4">grad=&#45;1.4498</text>
</g>
<!-- 1387435554640* -->
<g id="node44" class="node">
<title>1387435554640*</title>
<ellipse fill="#45475a" stroke="#f38ba8" cx="1625.5" cy="-151.5" rx="27" ry="18"/>
<text xml:space="preserve" text-anchor="middle" x="1625.5" y="-147.22" font-family="Helvetica,sans-Serif" font-weight="bold" font-size="12.00" fill="#f38ba8">*</text>
</g>
<!-- 1387435552848&#45;&gt;1387435554640* -->
<g id="edge26" class="edge">
<title>1387435552848&#45;&gt;1387435554640*</title>
<path fill="none" stroke="#89dceb" stroke-width="1.2" d="M1562.62,-156.16C1571.04,-155.52 1579.12,-154.91 1586.5,-154.36"/>
<polygon fill="#89dceb" stroke="#89dceb" stroke-width="1.2" points="1586.69,-157.86 1596.4,-153.61 1586.16,-150.88 1586.69,-157.86"/>
</g>
<!-- 1387435554896 -->
<g id="node2" class="node">
<title>1387435554896</title>
<polygon fill="#313244" stroke="#89b4fa" points="2144.25,-296.5 2144.25,-332.5 2331.5,-332.5 2331.5,-296.5 2144.25,-296.5"/>
<text xml:space="preserve" text-anchor="middle" x="2189.38" y="-311.05" font-family="Courier,monospace" font-size="11.00" fill="#cdd6f4">data=0.5000</text>
<polyline fill="none" stroke="#89b4fa" points="2234.5,-297 2234.5,-332.5"/>
<text xml:space="preserve" text-anchor="middle" x="2283" y="-311.05" font-family="Courier,monospace" font-size="11.00" fill="#cdd6f4">grad=&#45;1.8378</text>
</g>
<!-- 1387435555152* -->
<g id="node8" class="node">
<title>1387435555152*</title>
<ellipse fill="#45475a" stroke="#f38ba8" cx="2394.5" cy="-259.5" rx="27" ry="18"/>
<text xml:space="preserve" text-anchor="middle" x="2394.5" y="-255.22" font-family="Helvetica,sans-Serif" font-weight="bold" font-size="12.00" fill="#f38ba8">*</text>
</g>
<!-- 1387435554896&#45;&gt;1387435555152* -->
<g id="edge42" class="edge">
<title>1387435554896&#45;&gt;1387435555152*</title>
<path fill="none" stroke="#89dceb" stroke-width="1.2" d="M2306.02,-296.14C2314.66,-293.43 2323.33,-290.52 2331.5,-287.5 2341.37,-283.85 2351.89,-279.35 2361.4,-275.03"/>
<polygon fill="#89dceb" stroke="#89dceb" stroke-width="1.2" points="2362.76,-278.26 2370.36,-270.87 2359.81,-271.91 2362.76,-278.26"/>
</g>
<!-- 1387435552976 -->
<g id="node3" class="node">
<title>1387435552976</title>
<polygon fill="#313244" stroke="#89b4fa" points="1688.5,-184.5 1688.5,-220.5 1891.75,-220.5 1891.75,-184.5 1688.5,-184.5"/>
<text xml:space="preserve" text-anchor="middle" x="1699.88" y="-199.05" font-family="Courier,monospace" font-size="11.00" fill="#cdd6f4">b</text>
<polyline fill="none" stroke="#89b4fa" points="1711.25,-185 1711.25,-220.5"/>
<text xml:space="preserve" text-anchor="middle" x="1756.38" y="-199.05" font-family="Courier,monospace" font-size="11.00" fill="#cdd6f4">data=0.3470</text>
<polyline fill="none" stroke="#89b4fa" points="1801.5,-185 1801.5,-220.5"/>
<text xml:space="preserve" text-anchor="middle" x="1846.62" y="-199.05" font-family="Courier,monospace" font-size="11.00" fill="#cdd6f4">grad=1.8378</text>
</g>
<!-- 1387435554512+ -->
<g id="node42" class="node">
<title>1387435554512+</title>
<ellipse fill="#45475a" stroke="#f38ba8" cx="2018" cy="-206.5" rx="27" ry="18"/>
<text xml:space="preserve" text-anchor="middle" x="2018" y="-202.22" font-family="Helvetica,sans-Serif" font-weight="bold" font-size="12.00" fill="#f38ba8">+</text>
</g>
<!-- 1387435552976&#45;&gt;1387435554512+ -->
<g id="edge29" class="edge">
<title>1387435552976&#45;&gt;1387435554512+</title>
<path fill="none" stroke="#89dceb" stroke-width="1.2" d="M1892.17,-204.29C1922.98,-204.83 1954.98,-205.4 1978.87,-205.82"/>
<polygon fill="#89dceb" stroke="#89dceb" stroke-width="1.2" points="1978.69,-209.32 1988.75,-206 1978.82,-202.32 1978.69,-209.32"/>
</g>
<!-- 1387435555024 -->
<g id="node4" class="node">
<title>1387435555024</title>
<polygon fill="#313244" stroke="#89b4fa" points="2144.25,-241.5 2144.25,-277.5 2331.5,-277.5 2331.5,-241.5 2144.25,-241.5"/>
<text xml:space="preserve" text-anchor="middle" x="2192.75" y="-256.05" font-family="Courier,monospace" font-size="11.00" fill="#cdd6f4">data=&#45;1.0000</text>
<polyline fill="none" stroke="#89b4fa" points="2241.25,-242 2241.25,-277.5"/>
<text xml:space="preserve" text-anchor="middle" x="2286.38" y="-256.05" font-family="Courier,monospace" font-size="11.00" fill="#cdd6f4">grad=0.9189</text>
</g>
<!-- 1387435555024&#45;&gt;1387435555152* -->
<g id="edge19" class="edge">
<title>1387435555024&#45;&gt;1387435555152*</title>
<path fill="none" stroke="#89dceb" stroke-width="1.2" d="M2331.94,-259.5C2340.14,-259.5 2348.09,-259.5 2355.4,-259.5"/>
<polygon fill="#89dceb" stroke="#89dceb" stroke-width="1.2" points="2355.22,-263 2365.22,-259.5 2355.22,-256 2355.22,-263"/>
</g>
<!-- 1387435553104 -->
<g id="node5" class="node">
<title>1387435553104</title>
<polygon fill="#313244" stroke="#89b4fa" points="371,-275.5 371,-311.5 551.5,-311.5 551.5,-275.5 371,-275.5"/>
<text xml:space="preserve" text-anchor="middle" x="416.12" y="-290.05" font-family="Courier,monospace" font-size="11.00" fill="#cdd6f4">data=0.1265</text>
<polyline fill="none" stroke="#89b4fa" points="461.25,-276 461.25,-311.5"/>
<text xml:space="preserve" text-anchor="middle" x="506.38" y="-290.05" font-family="Courier,monospace" font-size="11.00" fill="#cdd6f4">grad=0.9456</text>
</g>
<!-- 1387435553232+ -->
<g id="node12" class="node">
<title>1387435553232+</title>
<ellipse fill="#45475a" stroke="#f38ba8" cx="636" cy="-293.5" rx="27" ry="18"/>
<text xml:space="preserve" text-anchor="middle" x="636" y="-289.23" font-family="Helvetica,sans-Serif" font-weight="bold" font-size="12.00" fill="#f38ba8">+</text>
</g>
<!-- 1387435553104&#45;&gt;1387435553232+ -->
<g id="edge48" class="edge">
<title>1387435553104&#45;&gt;1387435553232+</title>
<path fill="none" stroke="#89dceb" stroke-width="1.2" d="M551.91,-293.5C567.89,-293.5 583.72,-293.5 597.2,-293.5"/>
<polygon fill="#89dceb" stroke="#89dceb" stroke-width="1.2" points="597.05,-297 607.05,-293.5 597.05,-290 597.05,-297"/>
</g>
<!-- 1387435553104* -->
<g id="node6" class="node">
<title>1387435553104*</title>
<ellipse fill="#45475a" stroke="#f38ba8" cx="286.5" cy="-279.5" rx="27" ry="18"/>
<text xml:space="preserve" text-anchor="middle" x="286.5" y="-275.23" font-family="Helvetica,sans-Serif" font-weight="bold" font-size="12.00" fill="#f38ba8">*</text>
</g>
<!-- 1387435553104*&#45;&gt;1387435553104 -->
<g id="edge1" class="edge">
<title>1387435553104*&#45;&gt;1387435553104</title>
<path fill="none" stroke="#a6e3a1" stroke-width="1.5" d="M313.74,-281.63C326.19,-282.64 341.96,-283.91 358.51,-285.25"/>
<polygon fill="#a6e3a1" stroke="#a6e3a1" stroke-width="1.5" points="358.14,-288.74 368.39,-286.06 358.71,-281.76 358.14,-288.74"/>
</g>
<!-- 1387435555152 -->
<g id="node7" class="node">
<title>1387435555152</title>
<polygon fill="#313244" stroke="#89b4fa" points="2457.5,-241.5 2457.5,-277.5 2644.75,-277.5 2644.75,-241.5 2457.5,-241.5"/>
<text xml:space="preserve" text-anchor="middle" x="2506" y="-256.05" font-family="Courier,monospace" font-size="11.00" fill="#cdd6f4">data=&#45;0.5000</text>
<polyline fill="none" stroke="#89b4fa" points="2554.5,-242 2554.5,-277.5"/>
<text xml:space="preserve" text-anchor="middle" x="2599.62" y="-256.05" font-family="Courier,monospace" font-size="11.00" fill="#cdd6f4">grad=1.8378</text>
</g>
<!-- 1387435555280+ -->
<g id="node10" class="node">
<title>1387435555280+</title>
<ellipse fill="#45475a" stroke="#f38ba8" cx="2707.75" cy="-231.5" rx="27" ry="18"/>
<text xml:space="preserve" text-anchor="middle" x="2707.75" y="-227.22" font-family="Helvetica,sans-Serif" font-weight="bold" font-size="12.00" fill="#f38ba8">+</text>
</g>
<!-- 1387435555152&#45;&gt;1387435555280+ -->
<g id="edge44" class="edge">
<title>1387435555152&#45;&gt;1387435555280+</title>
<path fill="none" stroke="#89dceb" stroke-width="1.2" d="M2645.19,-242.65C2653.74,-241.1 2662.01,-239.6 2669.58,-238.23"/>
<polygon fill="#89dceb" stroke="#89dceb" stroke-width="1.2" points="2670.18,-241.68 2679.4,-236.45 2668.94,-234.79 2670.18,-241.68"/>
</g>
<!-- 1387435555152*&#45;&gt;1387435555152 -->
<g id="edge2" class="edge">
<title>1387435555152*&#45;&gt;1387435555152</title>
<path fill="none" stroke="#a6e3a1" stroke-width="1.5" d="M2421.73,-259.5C2428.64,-259.5 2436.54,-259.5 2444.94,-259.5"/>
<polygon fill="#a6e3a1" stroke="#a6e3a1" stroke-width="1.5" points="2444.84,-263 2454.84,-259.5 2444.84,-256 2444.84,-263"/>
</g>
<!-- 1387435555280 -->
<g id="node9" class="node">
<title>1387435555280</title>
<polygon fill="#313244" stroke="#89b4fa" points="2770.75,-213.5 2770.75,-249.5 2951.25,-249.5 2951.25,-213.5 2770.75,-213.5"/>
<text xml:space="preserve" text-anchor="middle" x="2815.88" y="-228.05" font-family="Courier,monospace" font-size="11.00" fill="#cdd6f4">data=0.9189</text>
<polyline fill="none" stroke="#89b4fa" points="2861,-214 2861,-249.5"/>
<text xml:space="preserve" text-anchor="middle" x="2906.12" y="-228.05" font-family="Courier,monospace" font-size="11.00" fill="#cdd6f4">grad=1.8378</text>
</g>
<!-- 1387435555408**2 -->
<g id="node14" class="node">
<title>1387435555408**2</title>
<ellipse fill="#45475a" stroke="#f38ba8" cx="3014.25" cy="-231.5" rx="27" ry="18"/>
<text xml:space="preserve" text-anchor="middle" x="3014.25" y="-227.22" font-family="Helvetica,sans-Serif" font-weight="bold" font-size="12.00" fill="#f38ba8">**2</text>
</g>
<!-- 1387435555280&#45;&gt;1387435555408**2 -->
<g id="edge38" class="edge">
<title>1387435555280&#45;&gt;1387435555408**2</title>
<path fill="none" stroke="#89dceb" stroke-width="1.2" d="M2951.73,-231.5C2959.96,-231.5 2967.96,-231.5 2975.32,-231.5"/>
<polygon fill="#89dceb" stroke="#89dceb" stroke-width="1.2" points="2975.22,-235 2985.22,-231.5 2975.22,-228 2975.22,-235"/>
</g>
<!-- 1387435555280+&#45;&gt;1387435555280 -->
<g id="edge3" class="edge">
<title>1387435555280+&#45;&gt;1387435555280</title>
<path fill="none" stroke="#a6e3a1" stroke-width="1.5" d="M2735.1,-231.5C2742,-231.5 2749.87,-231.5 2758.23,-231.5"/>
<polygon fill="#a6e3a1" stroke="#a6e3a1" stroke-width="1.5" points="2758.05,-235 2768.05,-231.5 2758.05,-228 2758.05,-235"/>
</g>
<!-- 1387435553232 -->
<g id="node11" class="node">
<title>1387435553232</title>
<polygon fill="#313244" stroke="#89b4fa" points="705.75,-275.5 705.75,-311.5 886.25,-311.5 886.25,-275.5 705.75,-275.5"/>
<text xml:space="preserve" text-anchor="middle" x="750.88" y="-290.05" font-family="Courier,monospace" font-size="11.00" fill="#cdd6f4">data=0.0552</text>
<polyline fill="none" stroke="#89b4fa" points="796,-276 796,-311.5"/>
<text xml:space="preserve" text-anchor="middle" x="841.12" y="-290.05" font-family="Courier,monospace" font-size="11.00" fill="#cdd6f4">grad=0.9456</text>
</g>
<!-- 1387435553488+ -->
<g id="node19" class="node">
<title>1387435553488+</title>
<ellipse fill="#45475a" stroke="#f38ba8" cx="956" cy="-244.5" rx="27" ry="18"/>
<text xml:space="preserve" text-anchor="middle" x="956" y="-240.22" font-family="Helvetica,sans-Serif" font-weight="bold" font-size="12.00" fill="#f38ba8">+</text>
</g>
<!-- 1387435553232&#45;&gt;1387435553488+ -->
<g id="edge20" class="edge">
<title>1387435553232&#45;&gt;1387435553488+</title>
<path fill="none" stroke="#89dceb" stroke-width="1.2" d="M864.83,-275.03C874.32,-272.27 883.92,-269.38 893,-266.5 902.11,-263.61 911.89,-260.25 920.92,-257.05"/>
<polygon fill="#89dceb" stroke="#89dceb" stroke-width="1.2" points="921.93,-260.41 930.16,-253.74 919.56,-253.82 921.93,-260.41"/>
</g>
<!-- 1387435553232+&#45;&gt;1387435553232 -->
<g id="edge4" class="edge">
<title>1387435553232+&#45;&gt;1387435553232</title>
<path fill="none" stroke="#a6e3a1" stroke-width="1.5" d="M663.45,-293.5C672.16,-293.5 682.42,-293.5 693.32,-293.5"/>
<polygon fill="#a6e3a1" stroke="#a6e3a1" stroke-width="1.5" points="693.08,-297 703.08,-293.5 693.08,-290 693.08,-297"/>
</g>
<!-- 1387435555408 -->
<g id="node13" class="node">
<title>1387435555408</title>
<polygon fill="#313244" stroke="#89b4fa" points="3077.25,-213.5 3077.25,-249.5 3257.75,-249.5 3257.75,-213.5 3077.25,-213.5"/>
<text xml:space="preserve" text-anchor="middle" x="3122.38" y="-228.05" font-family="Courier,monospace" font-size="11.00" fill="#cdd6f4">data=0.8444</text>
<polyline fill="none" stroke="#89b4fa" points="3167.5,-214 3167.5,-249.5"/>
<text xml:space="preserve" text-anchor="middle" x="3212.62" y="-228.05" font-family="Courier,monospace" font-size="11.00" fill="#cdd6f4">grad=1.0000</text>
</g>
<!-- 1387435555408**2&#45;&gt;1387435555408 -->
<g id="edge5" class="edge">
<title>1387435555408**2&#45;&gt;1387435555408</title>
<path fill="none" stroke="#a6e3a1" stroke-width="1.5" d="M3041.6,-231.5C3048.5,-231.5 3056.37,-231.5 3064.73,-231.5"/>
<polygon fill="#a6e3a1" stroke="#a6e3a1" stroke-width="1.5" points="3064.55,-235 3074.55,-231.5 3064.55,-228 3064.55,-235"/>
</g>
<!-- 1387435553360 -->
<g id="node15" class="node">
<title>1387435553360</title>
<polygon fill="#313244" stroke="#89b4fa" points="705.75,-220.5 705.75,-256.5 886.25,-256.5 886.25,-220.5 705.75,-220.5"/>
<text xml:space="preserve" text-anchor="middle" x="750.88" y="-235.05" font-family="Courier,monospace" font-size="11.00" fill="#cdd6f4">data=0.5751</text>
<polyline fill="none" stroke="#89b4fa" points="796,-221 796,-256.5"/>
<text xml:space="preserve" text-anchor="middle" x="841.12" y="-235.05" font-family="Courier,monospace" font-size="11.00" fill="#cdd6f4">grad=0.9456</text>
</g>
<!-- 1387435553360&#45;&gt;1387435553488+ -->
<g id="edge31" class="edge">
<title>1387435553360&#45;&gt;1387435553488+</title>
<path fill="none" stroke="#89dceb" stroke-width="1.2" d="M886.62,-241.9C897.27,-242.31 907.66,-242.7 917,-243.06"/>
<polygon fill="#89dceb" stroke="#89dceb" stroke-width="1.2" points="916.66,-246.55 926.78,-243.43 916.92,-239.55 916.66,-246.55"/>
</g>
<!-- 1387435553360* -->
<g id="node16" class="node">
<title>1387435553360*</title>
<ellipse fill="#45475a" stroke="#f38ba8" cx="636" cy="-238.5" rx="27" ry="18"/>
<text xml:space="preserve" text-anchor="middle" x="636" y="-234.22" font-family="Helvetica,sans-Serif" font-weight="bold" font-size="12.00" fill="#f38ba8">*</text>
</g>
<!-- 1387435553360*&#45;&gt;1387435553360 -->
<g id="edge6" class="edge">
<title>1387435553360*&#45;&gt;1387435553360</title>
<path fill="none" stroke="#a6e3a1" stroke-width="1.5" d="M663.45,-238.5C672.16,-238.5 682.42,-238.5 693.32,-238.5"/>
<polygon fill="#a6e3a1" stroke="#a6e3a1" stroke-width="1.5" points="693.08,-242 703.08,-238.5 693.08,-235 693.08,-242"/>
</g>
<!-- 1387435552720 -->
<g id="node17" class="node">
<title>1387435552720</title>
<polygon fill="#313244" stroke="#89b4fa" points="1345.75,-281.5 1345.75,-317.5 1555.75,-317.5 1555.75,-281.5 1345.75,-281.5"/>
<text xml:space="preserve" text-anchor="middle" x="1360.5" y="-296.05" font-family="Courier,monospace" font-size="11.00" fill="#cdd6f4">w0</text>
<polyline fill="none" stroke="#89b4fa" points="1375.25,-282 1375.25,-317.5"/>
<text xml:space="preserve" text-anchor="middle" x="1420.38" y="-296.05" font-family="Courier,monospace" font-size="11.00" fill="#cdd6f4">data=0.7476</text>
<polyline fill="none" stroke="#89b4fa" points="1465.5,-282 1465.5,-317.5"/>
<text xml:space="preserve" text-anchor="middle" x="1510.62" y="-296.05" font-family="Courier,monospace" font-size="11.00" fill="#cdd6f4">grad=1.0260</text>
</g>
<!-- 1387435554384* -->
<g id="node39" class="node">
<title>1387435554384*</title>
<ellipse fill="#45475a" stroke="#f38ba8" cx="1625.5" cy="-257.5" rx="27" ry="18"/>
<text xml:space="preserve" text-anchor="middle" x="1625.5" y="-253.22" font-family="Helvetica,sans-Serif" font-weight="bold" font-size="12.00" fill="#f38ba8">*</text>
</g>
<!-- 1387435552720&#45;&gt;1387435554384* -->
<g id="edge25" class="edge">
<title>1387435552720&#45;&gt;1387435554384*</title>
<path fill="none" stroke="#89dceb" stroke-width="1.2" d="M1527.77,-281.02C1548.81,-275.9 1570.67,-270.59 1588.28,-266.31"/>
<polygon fill="#89dceb" stroke="#89dceb" stroke-width="1.2" points="1589.08,-269.71 1597.97,-263.95 1587.42,-262.91 1589.08,-269.71"/>
</g>
<!-- 1387435553488 -->
<g id="node18" class="node">
<title>1387435553488</title>
<polygon fill="#313244" stroke="#89b4fa" points="1025.75,-226.5 1025.75,-262.5 1206.25,-262.5 1206.25,-226.5 1025.75,-226.5"/>
<text xml:space="preserve" text-anchor="middle" x="1070.88" y="-241.05" font-family="Courier,monospace" font-size="11.00" fill="#cdd6f4">data=0.6303</text>
<polyline fill="none" stroke="#89b4fa" points="1116,-227 1116,-262.5"/>
<text xml:space="preserve" text-anchor="middle" x="1161.12" y="-241.05" font-family="Courier,monospace" font-size="11.00" fill="#cdd6f4">grad=0.9456</text>
</g>
<!-- 1387435553616tanh -->
<g id="node21" class="node">
<title>1387435553616tanh</title>
<ellipse fill="#45475a" stroke="#f38ba8" cx="1276" cy="-244.5" rx="27" ry="18"/>
<text xml:space="preserve" text-anchor="middle" x="1276" y="-240.22" font-family="Helvetica,sans-Serif" font-weight="bold" font-size="12.00" fill="#f38ba8">tanh</text>
</g>
<!-- 1387435553488&#45;&gt;1387435553616tanh -->
<g id="edge21" class="edge">
<title>1387435553488&#45;&gt;1387435553616tanh</title>
<path fill="none" stroke="#89dceb" stroke-width="1.2" d="M1206.62,-244.5C1217.27,-244.5 1227.66,-244.5 1237,-244.5"/>
<polygon fill="#89dceb" stroke="#89dceb" stroke-width="1.2" points="1236.78,-248 1246.78,-244.5 1236.78,-241 1236.78,-248"/>
</g>
<!-- 1387435553488+&#45;&gt;1387435553488 -->
<g id="edge7" class="edge">
<title>1387435553488+&#45;&gt;1387435553488</title>
<path fill="none" stroke="#a6e3a1" stroke-width="1.5" d="M983.45,-244.5C992.16,-244.5 1002.42,-244.5 1013.32,-244.5"/>
<polygon fill="#a6e3a1" stroke="#a6e3a1" stroke-width="1.5" points="1013.08,-248 1023.08,-244.5 1013.08,-241 1013.08,-248"/>
</g>
<!-- 1387435553616 -->
<g id="node20" class="node">
<title>1387435553616</title>
<polygon fill="#313244" stroke="#89b4fa" points="1360.5,-226.5 1360.5,-262.5 1541,-262.5 1541,-226.5 1360.5,-226.5"/>
<text xml:space="preserve" text-anchor="middle" x="1405.62" y="-241.05" font-family="Courier,monospace" font-size="11.00" fill="#cdd6f4">data=0.5583</text>
<polyline fill="none" stroke="#89b4fa" points="1450.75,-227 1450.75,-262.5"/>
<text xml:space="preserve" text-anchor="middle" x="1495.88" y="-241.05" font-family="Courier,monospace" font-size="11.00" fill="#cdd6f4">grad=1.3738</text>
</g>
<!-- 1387435553616&#45;&gt;1387435554384* -->
<g id="edge45" class="edge">
<title>1387435553616&#45;&gt;1387435554384*</title>
<path fill="none" stroke="#89dceb" stroke-width="1.2" d="M1541.41,-251.25C1557.39,-252.45 1573.22,-253.64 1586.7,-254.66"/>
<polygon fill="#89dceb" stroke="#89dceb" stroke-width="1.2" points="1586.32,-258.14 1596.56,-255.4 1586.85,-251.16 1586.32,-258.14"/>
</g>
<!-- 1387435553616tanh&#45;&gt;1387435553616 -->
<g id="edge8" class="edge">
<title>1387435553616tanh&#45;&gt;1387435553616</title>
<path fill="none" stroke="#a6e3a1" stroke-width="1.5" d="M1303.24,-244.5C1315.69,-244.5 1331.46,-244.5 1348.01,-244.5"/>
<polygon fill="#a6e3a1" stroke="#a6e3a1" stroke-width="1.5" points="1347.89,-248 1357.89,-244.5 1347.89,-241 1347.89,-248"/>
</g>
<!-- 1387435551696 -->
<g id="node22" class="node">
<title>1387435551696</title>
<polygon fill="#313244" stroke="#89b4fa" points="6.75,-179.5 6.75,-215.5 216.75,-215.5 216.75,-179.5 6.75,-179.5"/>
<text xml:space="preserve" text-anchor="middle" x="21.5" y="-194.05" font-family="Courier,monospace" font-size="11.00" fill="#cdd6f4">x1</text>
<polyline fill="none" stroke="#89b4fa" points="36.25,-180 36.25,-215.5"/>
<text xml:space="preserve" text-anchor="middle" x="81.38" y="-194.05" font-family="Courier,monospace" font-size="11.00" fill="#cdd6f4">data=1.0000</text>
<polyline fill="none" stroke="#89b4fa" points="126.5,-180 126.5,-215.5"/>
<text xml:space="preserve" text-anchor="middle" x="171.62" y="-194.05" font-family="Courier,monospace" font-size="11.00" fill="#cdd6f4">grad=0.6722</text>
</g>
<!-- 1387435551696&#45;&gt;1387435553104* -->
<g id="edge37" class="edge">
<title>1387435551696&#45;&gt;1387435553104*</title>
<path fill="none" stroke="#89dceb" stroke-width="1.2" d="M151.52,-215.9C182.22,-230.47 224.58,-250.58 253.39,-264.26"/>
<polygon fill="#89dceb" stroke="#89dceb" stroke-width="1.2" points="251.55,-267.26 262.08,-268.38 254.55,-260.93 251.55,-267.26"/>
</g>
<!-- 1387435553744* -->
<g id="node24" class="node">
<title>1387435553744*</title>
<ellipse fill="#45475a" stroke="#f38ba8" cx="286.5" cy="-87.5" rx="27" ry="18"/>
<text xml:space="preserve" text-anchor="middle" x="286.5" y="-83.22" font-family="Helvetica,sans-Serif" font-weight="bold" font-size="12.00" fill="#f38ba8">*</text>
</g>
<!-- 1387435551696&#45;&gt;1387435553744* -->
<g id="edge32" class="edge">
<title>1387435551696&#45;&gt;1387435553744*</title>
<path fill="none" stroke="#89dceb" stroke-width="1.2" d="M141.66,-179.09C173.56,-158.78 224.58,-126.29 256.51,-105.96"/>
<polygon fill="#89dceb" stroke="#89dceb" stroke-width="1.2" points="258.07,-109.12 264.62,-100.79 254.31,-103.21 258.07,-109.12"/>
</g>
<!-- 1387435553744 -->
<g id="node23" class="node">
<title>1387435553744</title>
<polygon fill="#313244" stroke="#89b4fa" points="364.25,-55.5 364.25,-91.5 558.25,-91.5 558.25,-55.5 364.25,-55.5"/>
<text xml:space="preserve" text-anchor="middle" x="412.75" y="-70.05" font-family="Courier,monospace" font-size="11.00" fill="#cdd6f4">data=&#45;0.9594</text>
<polyline fill="none" stroke="#89b4fa" points="461.25,-56 461.25,-91.5"/>
<text xml:space="preserve" text-anchor="middle" x="509.75" y="-70.05" font-family="Courier,monospace" font-size="11.00" fill="#cdd6f4">grad=&#45;0.5759</text>
</g>
<!-- 1387435553872+ -->
<g id="node27" class="node">
<title>1387435553872+</title>
<ellipse fill="#45475a" stroke="#f38ba8" cx="636" cy="-121.5" rx="27" ry="18"/>
<text xml:space="preserve" text-anchor="middle" x="636" y="-117.22" font-family="Helvetica,sans-Serif" font-weight="bold" font-size="12.00" fill="#f38ba8">+</text>
</g>
<!-- 1387435553744&#45;&gt;1387435553872+ -->
<g id="edge39" class="edge">
<title>1387435553744&#45;&gt;1387435553872+</title>
<path fill="none" stroke="#89dceb" stroke-width="1.2" d="M541.72,-91.99C552.28,-94.7 562.93,-97.57 573,-100.5 582.05,-103.13 591.75,-106.26 600.73,-109.29"/>
<polygon fill="#89dceb" stroke="#89dceb" stroke-width="1.2" points="599.29,-112.5 609.88,-112.44 601.57,-105.88 599.29,-112.5"/>
</g>
<!-- 1387435553744*&#45;&gt;1387435553744 -->
<g id="edge9" class="edge">
<title>1387435553744*&#45;&gt;1387435553744</title>
<path fill="none" stroke="#a6e3a1" stroke-width="1.5" d="M313.74,-85.37C324.5,-84.5 337.74,-83.43 351.82,-82.29"/>
<polygon fill="#a6e3a1" stroke="#a6e3a1" stroke-width="1.5" points="351.86,-85.8 361.55,-81.5 351.3,-78.82 351.86,-85.8"/>
</g>
<!-- 1387435551824 -->
<g id="node25" class="node">
<title>1387435551824</title>
<polygon fill="#313244" stroke="#89b4fa" points="356.25,-165.5 356.25,-201.5 566.25,-201.5 566.25,-165.5 356.25,-165.5"/>
<text xml:space="preserve" text-anchor="middle" x="371" y="-180.05" font-family="Courier,monospace" font-size="11.00" fill="#cdd6f4">x2</text>
<polyline fill="none" stroke="#89b4fa" points="385.75,-166 385.75,-201.5"/>
<text xml:space="preserve" text-anchor="middle" x="430.88" y="-180.05" font-family="Courier,monospace" font-size="11.00" fill="#cdd6f4">data=2.0000</text>
<polyline fill="none" stroke="#89b4fa" points="476,-166 476,-201.5"/>
<text xml:space="preserve" text-anchor="middle" x="521.12" y="-180.05" font-family="Courier,monospace" font-size="11.00" fill="#cdd6f4">grad=0.4497</text>
</g>
<!-- 1387435551824&#45;&gt;1387435553360* -->
<g id="edge40" class="edge">
<title>1387435551824&#45;&gt;1387435553360*</title>
<path fill="none" stroke="#89dceb" stroke-width="1.2" d="M541.96,-201.99C552.48,-204.91 563.05,-208.1 573,-211.5 582.9,-214.88 593.42,-219.18 602.93,-223.35"/>
<polygon fill="#89dceb" stroke="#89dceb" stroke-width="1.2" points="601.32,-226.46 611.88,-227.38 604.2,-220.08 601.32,-226.46"/>
</g>
<!-- 1387435554000* -->
<g id="node29" class="node">
<title>1387435554000*</title>
<ellipse fill="#45475a" stroke="#f38ba8" cx="636" cy="-66.5" rx="27" ry="18"/>
<text xml:space="preserve" text-anchor="middle" x="636" y="-62.23" font-family="Helvetica,sans-Serif" font-weight="bold" font-size="12.00" fill="#f38ba8">*</text>
</g>
<!-- 1387435551824&#45;&gt;1387435554000* -->
<g id="edge35" class="edge">
<title>1387435551824&#45;&gt;1387435554000*</title>
<path fill="none" stroke="#89dceb" stroke-width="1.2" d="M559.29,-165.02C564.11,-162.52 568.72,-159.7 573,-156.5 598.52,-137.42 590.04,-120.11 609,-94.5 610.14,-92.96 611.35,-91.41 612.61,-89.88"/>
<polygon fill="#89dceb" stroke="#89dceb" stroke-width="1.2" points="614.9,-92.57 618.85,-82.74 609.64,-87.96 614.9,-92.57"/>
</g>
<!-- 1387435553872 -->
<g id="node26" class="node">
<title>1387435553872</title>
<polygon fill="#313244" stroke="#89b4fa" points="699,-103.5 699,-139.5 893,-139.5 893,-103.5 699,-103.5"/>
<text xml:space="preserve" text-anchor="middle" x="747.5" y="-118.05" font-family="Courier,monospace" font-size="11.00" fill="#cdd6f4">data=&#45;0.4509</text>
<polyline fill="none" stroke="#89b4fa" points="796,-104 796,-139.5"/>
<text xml:space="preserve" text-anchor="middle" x="844.5" y="-118.05" font-family="Courier,monospace" font-size="11.00" fill="#cdd6f4">grad=&#45;0.5759</text>
</g>
<!-- 1387435554128+ -->
<g id="node32" class="node">
<title>1387435554128+</title>
<ellipse fill="#45475a" stroke="#f38ba8" cx="956" cy="-109.5" rx="27" ry="18"/>
<text xml:space="preserve" text-anchor="middle" x="956" y="-105.22" font-family="Helvetica,sans-Serif" font-weight="bold" font-size="12.00" fill="#f38ba8">+</text>
</g>
<!-- 1387435553872&#45;&gt;1387435554128+ -->
<g id="edge41" class="edge">
<title>1387435553872&#45;&gt;1387435554128+</title>
<path fill="none" stroke="#89dceb" stroke-width="1.2" d="M893.46,-114.17C901.77,-113.54 909.82,-112.93 917.19,-112.37"/>
<polygon fill="#89dceb" stroke="#89dceb" stroke-width="1.2" points="917.4,-115.87 927.1,-111.62 916.86,-108.89 917.4,-115.87"/>
</g>
<!-- 1387435553872+&#45;&gt;1387435553872 -->
<g id="edge10" class="edge">
<title>1387435553872+&#45;&gt;1387435553872</title>
<path fill="none" stroke="#a6e3a1" stroke-width="1.5" d="M663.45,-121.5C670.31,-121.5 678.15,-121.5 686.5,-121.5"/>
<polygon fill="#a6e3a1" stroke="#a6e3a1" stroke-width="1.5" points="686.33,-125 696.33,-121.5 686.33,-118 686.33,-125"/>
</g>
<!-- 1387435554000 -->
<g id="node28" class="node">
<title>1387435554000</title>
<polygon fill="#313244" stroke="#89b4fa" points="699,-48.5 699,-84.5 893,-84.5 893,-48.5 699,-48.5"/>
<text xml:space="preserve" text-anchor="middle" x="747.5" y="-63.05" font-family="Courier,monospace" font-size="11.00" fill="#cdd6f4">data=&#45;0.6175</text>
<polyline fill="none" stroke="#89b4fa" points="796,-49 796,-84.5"/>
<text xml:space="preserve" text-anchor="middle" x="844.5" y="-63.05" font-family="Courier,monospace" font-size="11.00" fill="#cdd6f4">grad=&#45;0.5759</text>
</g>
<!-- 1387435554000&#45;&gt;1387435554128+ -->
<g id="edge18" class="edge">
<title>1387435554000&#45;&gt;1387435554128+</title>
<path fill="none" stroke="#89dceb" stroke-width="1.2" d="M864.92,-84.99C883.77,-90.11 903.47,-95.48 919.63,-99.87"/>
<polygon fill="#89dceb" stroke="#89dceb" stroke-width="1.2" points="918.38,-103.16 928.95,-102.41 920.22,-96.41 918.38,-103.16"/>
</g>
<!-- 1387435554000*&#45;&gt;1387435554000 -->
<g id="edge11" class="edge">
<title>1387435554000*&#45;&gt;1387435554000</title>
<path fill="none" stroke="#a6e3a1" stroke-width="1.5" d="M663.45,-66.5C670.31,-66.5 678.15,-66.5 686.5,-66.5"/>
<polygon fill="#a6e3a1" stroke="#a6e3a1" stroke-width="1.5" points="686.33,-70 696.33,-66.5 686.33,-63 686.33,-70"/>
</g>
<!-- 1387435551952 -->
<g id="node30" class="node">
<title>1387435551952</title>
<polygon fill="#313244" stroke="#89b4fa" points="6.75,-261.5 6.75,-297.5 216.75,-297.5 216.75,-261.5 6.75,-261.5"/>
<text xml:space="preserve" text-anchor="middle" x="21.5" y="-276.05" font-family="Courier,monospace" font-size="11.00" fill="#cdd6f4">w0</text>
<polyline fill="none" stroke="#89b4fa" points="36.25,-262 36.25,-297.5"/>
<text xml:space="preserve" text-anchor="middle" x="81.38" y="-276.05" font-family="Courier,monospace" font-size="11.00" fill="#cdd6f4">data=0.1265</text>
<polyline fill="none" stroke="#89b4fa" points="126.5,-262 126.5,-297.5"/>
<text xml:space="preserve" text-anchor="middle" x="171.62" y="-276.05" font-family="Courier,monospace" font-size="11.00" fill="#cdd6f4">grad=0.9456</text>
</g>
<!-- 1387435551952&#45;&gt;1387435553104* -->
<g id="edge24" class="edge">
<title>1387435551952&#45;&gt;1387435553104*</title>
<path fill="none" stroke="#89dceb" stroke-width="1.2" d="M217.22,-279.5C227.87,-279.5 238.14,-279.5 247.33,-279.5"/>
<polygon fill="#89dceb" stroke="#89dceb" stroke-width="1.2" points="247.32,-283 257.32,-279.5 247.32,-276 247.32,-283"/>
</g>
<!-- 1387435554128 -->
<g id="node31" class="node">
<title>1387435554128</title>
<polygon fill="#313244" stroke="#89b4fa" points="1019,-91.5 1019,-127.5 1213,-127.5 1213,-91.5 1019,-91.5"/>
<text xml:space="preserve" text-anchor="middle" x="1067.5" y="-106.05" font-family="Courier,monospace" font-size="11.00" fill="#cdd6f4">data=&#45;1.0684</text>
<polyline fill="none" stroke="#89b4fa" points="1116,-92 1116,-127.5"/>
<text xml:space="preserve" text-anchor="middle" x="1164.5" y="-106.05" font-family="Courier,monospace" font-size="11.00" fill="#cdd6f4">grad=&#45;0.5759</text>
</g>
<!-- 1387435554256tanh -->
<g id="node35" class="node">
<title>1387435554256tanh</title>
<ellipse fill="#45475a" stroke="#f38ba8" cx="1276" cy="-109.5" rx="27" ry="18"/>
<text xml:space="preserve" text-anchor="middle" x="1276" y="-105.22" font-family="Helvetica,sans-Serif" font-weight="bold" font-size="12.00" fill="#f38ba8">tanh</text>
</g>
<!-- 1387435554128&#45;&gt;1387435554256tanh -->
<g id="edge47" class="edge">
<title>1387435554128&#45;&gt;1387435554256tanh</title>
<path fill="none" stroke="#89dceb" stroke-width="1.2" d="M1213.46,-109.5C1221.69,-109.5 1229.66,-109.5 1236.98,-109.5"/>
<polygon fill="#89dceb" stroke="#89dceb" stroke-width="1.2" points="1236.79,-113 1246.79,-109.5 1236.79,-106 1236.79,-113"/>
</g>
<!-- 1387435554128+&#45;&gt;1387435554128 -->
<g id="edge12" class="edge">
<title>1387435554128+&#45;&gt;1387435554128</title>
<path fill="none" stroke="#a6e3a1" stroke-width="1.5" d="M983.45,-109.5C990.31,-109.5 998.15,-109.5 1006.5,-109.5"/>
<polygon fill="#a6e3a1" stroke="#a6e3a1" stroke-width="1.5" points="1006.33,-113 1016.33,-109.5 1006.33,-106 1006.33,-113"/>
</g>
<!-- 1387435552080 -->
<g id="node33" class="node">
<title>1387435552080</title>
<polygon fill="#313244" stroke="#89b4fa" points="356.25,-220.5 356.25,-256.5 566.25,-256.5 566.25,-220.5 356.25,-220.5"/>
<text xml:space="preserve" text-anchor="middle" x="371" y="-235.05" font-family="Courier,monospace" font-size="11.00" fill="#cdd6f4">w1</text>
<polyline fill="none" stroke="#89b4fa" points="385.75,-221 385.75,-256.5"/>
<text xml:space="preserve" text-anchor="middle" x="430.88" y="-235.05" font-family="Courier,monospace" font-size="11.00" fill="#cdd6f4">data=0.2876</text>
<polyline fill="none" stroke="#89b4fa" points="476,-221 476,-256.5"/>
<text xml:space="preserve" text-anchor="middle" x="521.12" y="-235.05" font-family="Courier,monospace" font-size="11.00" fill="#cdd6f4">grad=1.8913</text>
</g>
<!-- 1387435552080&#45;&gt;1387435553360* -->
<g id="edge27" class="edge">
<title>1387435552080&#45;&gt;1387435553360*</title>
<path fill="none" stroke="#89dceb" stroke-width="1.2" d="M566.72,-238.5C577.37,-238.5 587.64,-238.5 596.83,-238.5"/>
<polygon fill="#89dceb" stroke="#89dceb" stroke-width="1.2" points="596.82,-242 606.82,-238.5 596.82,-235 596.82,-242"/>
</g>
<!-- 1387435554256 -->
<g id="node34" class="node">
<title>1387435554256</title>
<polygon fill="#313244" stroke="#89b4fa" points="1353.75,-91.5 1353.75,-127.5 1547.75,-127.5 1547.75,-91.5 1353.75,-91.5"/>
<text xml:space="preserve" text-anchor="middle" x="1402.25" y="-106.05" font-family="Courier,monospace" font-size="11.00" fill="#cdd6f4">data=&#45;0.7889</text>
<polyline fill="none" stroke="#89b4fa" points="1450.75,-92 1450.75,-127.5"/>
<text xml:space="preserve" text-anchor="middle" x="1499.25" y="-106.05" font-family="Courier,monospace" font-size="11.00" fill="#cdd6f4">grad=&#45;1.5249</text>
</g>
<!-- 1387435554256&#45;&gt;1387435554640* -->
<g id="edge36" class="edge">
<title>1387435554256&#45;&gt;1387435554640*</title>
<path fill="none" stroke="#89dceb" stroke-width="1.2" d="M1527.77,-127.98C1548.81,-133.1 1570.67,-138.41 1588.28,-142.69"/>
<polygon fill="#89dceb" stroke="#89dceb" stroke-width="1.2" points="1587.42,-146.09 1597.97,-145.05 1589.08,-139.29 1587.42,-146.09"/>
</g>
<!-- 1387435554256tanh&#45;&gt;1387435554256 -->
<g id="edge13" class="edge">
<title>1387435554256tanh&#45;&gt;1387435554256</title>
<path fill="none" stroke="#a6e3a1" stroke-width="1.5" d="M1303.24,-109.5C1314,-109.5 1327.24,-109.5 1341.32,-109.5"/>
<polygon fill="#a6e3a1" stroke="#a6e3a1" stroke-width="1.5" points="1341.04,-113 1351.04,-109.5 1341.04,-106 1341.04,-113"/>
</g>
<!-- 1387435552208 -->
<g id="node36" class="node">
<title>1387435552208</title>
<polygon fill="#313244" stroke="#89b4fa" points="356.25,-330.5 356.25,-366.5 566.25,-366.5 566.25,-330.5 356.25,-330.5"/>
<text xml:space="preserve" text-anchor="middle" x="367.62" y="-345.05" font-family="Courier,monospace" font-size="11.00" fill="#cdd6f4">b</text>
<polyline fill="none" stroke="#89b4fa" points="379,-331 379,-366.5"/>
<text xml:space="preserve" text-anchor="middle" x="427.5" y="-345.05" font-family="Courier,monospace" font-size="11.00" fill="#cdd6f4">data=&#45;0.0713</text>
<polyline fill="none" stroke="#89b4fa" points="476,-331 476,-366.5"/>
<text xml:space="preserve" text-anchor="middle" x="521.12" y="-345.05" font-family="Courier,monospace" font-size="11.00" fill="#cdd6f4">grad=0.9456</text>
</g>
<!-- 1387435552208&#45;&gt;1387435553232+ -->
<g id="edge28" class="edge">
<title>1387435552208&#45;&gt;1387435553232+</title>
<path fill="none" stroke="#89dceb" stroke-width="1.2" d="M545.29,-330.03C554.71,-327.42 564.11,-324.56 573,-321.5 583.03,-318.04 593.66,-313.57 603.23,-309.21"/>
<polygon fill="#89dceb" stroke="#89dceb" stroke-width="1.2" points="604.66,-312.4 612.23,-304.99 601.69,-306.06 604.66,-312.4"/>
</g>
<!-- 1387435552336 -->
<g id="node37" class="node">
<title>1387435552336</title>
<polygon fill="#313244" stroke="#89b4fa" points="0,-69.5 0,-105.5 223.5,-105.5 223.5,-69.5 0,-69.5"/>
<text xml:space="preserve" text-anchor="middle" x="14.75" y="-84.05" font-family="Courier,monospace" font-size="11.00" fill="#cdd6f4">w0</text>
<polyline fill="none" stroke="#89b4fa" points="29.5,-70 29.5,-105.5"/>
<text xml:space="preserve" text-anchor="middle" x="78" y="-84.05" font-family="Courier,monospace" font-size="11.00" fill="#cdd6f4">data=&#45;0.9594</text>
<polyline fill="none" stroke="#89b4fa" points="126.5,-70 126.5,-105.5"/>
<text xml:space="preserve" text-anchor="middle" x="175" y="-84.05" font-family="Courier,monospace" font-size="11.00" fill="#cdd6f4">grad=&#45;0.5759</text>
</g>
<!-- 1387435552336&#45;&gt;1387435553744* -->
<g id="edge22" class="edge">
<title>1387435552336&#45;&gt;1387435553744*</title>
<path fill="none" stroke="#89dceb" stroke-width="1.2" d="M223.62,-87.5C232.04,-87.5 240.12,-87.5 247.5,-87.5"/>
<polygon fill="#89dceb" stroke="#89dceb" stroke-width="1.2" points="247.39,-91 257.39,-87.5 247.39,-84 247.39,-91"/>
</g>
<!-- 1387435554384 -->
<g id="node38" class="node">
<title>1387435554384</title>
<polygon fill="#313244" stroke="#89b4fa" points="1699.88,-239.5 1699.88,-275.5 1880.38,-275.5 1880.38,-239.5 1699.88,-239.5"/>
<text xml:space="preserve" text-anchor="middle" x="1745" y="-254.05" font-family="Courier,monospace" font-size="11.00" fill="#cdd6f4">data=0.4174</text>
<polyline fill="none" stroke="#89b4fa" points="1790.12,-240 1790.12,-275.5"/>
<text xml:space="preserve" text-anchor="middle" x="1835.25" y="-254.05" font-family="Courier,monospace" font-size="11.00" fill="#cdd6f4">grad=1.8378</text>
</g>
<!-- 1387435554384&#45;&gt;1387435554512+ -->
<g id="edge30" class="edge">
<title>1387435554384&#45;&gt;1387435554512+</title>
<path fill="none" stroke="#89dceb" stroke-width="1.2" d="M1872.99,-239.02C1909.94,-230.67 1951.7,-221.24 1980.7,-214.7"/>
<polygon fill="#89dceb" stroke="#89dceb" stroke-width="1.2" points="1981.16,-218.18 1990.15,-212.56 1979.62,-211.35 1981.16,-218.18"/>
</g>
<!-- 1387435554384*&#45;&gt;1387435554384 -->
<g id="edge14" class="edge">
<title>1387435554384*&#45;&gt;1387435554384</title>
<path fill="none" stroke="#a6e3a1" stroke-width="1.5" d="M1652.99,-257.5C1662.88,-257.5 1674.8,-257.5 1687.41,-257.5"/>
<polygon fill="#a6e3a1" stroke="#a6e3a1" stroke-width="1.5" points="1687.41,-261 1697.41,-257.5 1687.41,-254 1687.41,-261"/>
</g>
<!-- 1387435552464 -->
<g id="node40" class="node">
<title>1387435552464</title>
<polygon fill="#313244" stroke="#89b4fa" points="349.5,-0.5 349.5,-36.5 573,-36.5 573,-0.5 349.5,-0.5"/>
<text xml:space="preserve" text-anchor="middle" x="364.25" y="-15.05" font-family="Courier,monospace" font-size="11.00" fill="#cdd6f4">w1</text>
<polyline fill="none" stroke="#89b4fa" points="379,-1 379,-36.5"/>
<text xml:space="preserve" text-anchor="middle" x="427.5" y="-15.05" font-family="Courier,monospace" font-size="11.00" fill="#cdd6f4">data=&#45;0.3087</text>
<polyline fill="none" stroke="#89b4fa" points="476,-1 476,-36.5"/>
<text xml:space="preserve" text-anchor="middle" x="524.5" y="-15.05" font-family="Courier,monospace" font-size="11.00" fill="#cdd6f4">grad=&#45;1.1519</text>
</g>
<!-- 1387435552464&#45;&gt;1387435554000* -->
<g id="edge23" class="edge">
<title>1387435552464&#45;&gt;1387435554000*</title>
<path fill="none" stroke="#89dceb" stroke-width="1.2" d="M541.72,-36.99C552.28,-39.7 562.93,-42.57 573,-45.5 582.05,-48.13 591.75,-51.26 600.73,-54.29"/>
<polygon fill="#89dceb" stroke="#89dceb" stroke-width="1.2" points="599.29,-57.5 609.88,-57.44 601.57,-50.88 599.29,-57.5"/>
</g>
<!-- 1387435554512 -->
<g id="node41" class="node">
<title>1387435554512</title>
<polygon fill="#313244" stroke="#89b4fa" points="2147.62,-186.5 2147.62,-222.5 2328.12,-222.5 2328.12,-186.5 2147.62,-186.5"/>
<text xml:space="preserve" text-anchor="middle" x="2192.75" y="-201.05" font-family="Courier,monospace" font-size="11.00" fill="#cdd6f4">data=0.7643</text>
<polyline fill="none" stroke="#89b4fa" points="2237.88,-187 2237.88,-222.5"/>
<text xml:space="preserve" text-anchor="middle" x="2283" y="-201.05" font-family="Courier,monospace" font-size="11.00" fill="#cdd6f4">grad=1.8378</text>
</g>
<!-- 1387435554768+ -->
<g id="node47" class="node">
<title>1387435554768+</title>
<ellipse fill="#45475a" stroke="#f38ba8" cx="2394.5" cy="-204.5" rx="27" ry="18"/>
<text xml:space="preserve" text-anchor="middle" x="2394.5" y="-200.22" font-family="Helvetica,sans-Serif" font-weight="bold" font-size="12.00" fill="#f38ba8">+</text>
</g>
<!-- 1387435554512&#45;&gt;1387435554768+ -->
<g id="edge34" class="edge">
<title>1387435554512&#45;&gt;1387435554768+</title>
<path fill="none" stroke="#89dceb" stroke-width="1.2" d="M2328.37,-204.5C2337.89,-204.5 2347.15,-204.5 2355.56,-204.5"/>
<polygon fill="#89dceb" stroke="#89dceb" stroke-width="1.2" points="2355.39,-208 2365.39,-204.5 2355.39,-201 2355.39,-208"/>
</g>
<!-- 1387435554512+&#45;&gt;1387435554512 -->
<g id="edge15" class="edge">
<title>1387435554512+&#45;&gt;1387435554512</title>
<path fill="none" stroke="#a6e3a1" stroke-width="1.5" d="M2045.28,-206.26C2067.86,-206.05 2101.93,-205.74 2135.11,-205.43"/>
<polygon fill="#a6e3a1" stroke="#a6e3a1" stroke-width="1.5" points="2135.04,-208.94 2145,-205.34 2134.97,-201.94 2135.04,-208.94"/>
</g>
<!-- 1387435554640 -->
<g id="node43" class="node">
<title>1387435554640</title>
<polygon fill="#313244" stroke="#89b4fa" points="1927.75,-133.5 1927.75,-169.5 2108.25,-169.5 2108.25,-133.5 1927.75,-133.5"/>
<text xml:space="preserve" text-anchor="middle" x="1972.88" y="-148.05" font-family="Courier,monospace" font-size="11.00" fill="#cdd6f4">data=0.6545</text>
<polyline fill="none" stroke="#89b4fa" points="2018,-134 2018,-169.5"/>
<text xml:space="preserve" text-anchor="middle" x="2063.12" y="-148.05" font-family="Courier,monospace" font-size="11.00" fill="#cdd6f4">grad=1.8378</text>
</g>
<!-- 1387435554640&#45;&gt;1387435554768+ -->
<g id="edge46" class="edge">
<title>1387435554640&#45;&gt;1387435554768+</title>
<path fill="none" stroke="#89dceb" stroke-width="1.2" d="M2108.5,-151.22C2171.68,-152.89 2257.86,-158.94 2331.5,-177.5 2341.73,-180.08 2352.41,-184.17 2361.98,-188.4"/>
<polygon fill="#89dceb" stroke="#89dceb" stroke-width="1.2" points="2360.4,-191.53 2370.94,-192.58 2363.36,-185.18 2360.4,-191.53"/>
</g>
<!-- 1387435554640*&#45;&gt;1387435554640 -->
<g id="edge16" class="edge">
<title>1387435554640*&#45;&gt;1387435554640</title>
<path fill="none" stroke="#a6e3a1" stroke-width="1.5" d="M1652.73,-151.5C1705.48,-151.5 1826.91,-151.5 1915.1,-151.5"/>
<polygon fill="#a6e3a1" stroke="#a6e3a1" stroke-width="1.5" points="1915.04,-155 1925.04,-151.5 1915.04,-148 1915.04,-155"/>
</g>
<!-- 1387435552592 -->
<g id="node45" class="node">
<title>1387435552592</title>
<polygon fill="#313244" stroke="#89b4fa" points="356.25,-110.5 356.25,-146.5 566.25,-146.5 566.25,-110.5 356.25,-110.5"/>
<text xml:space="preserve" text-anchor="middle" x="367.62" y="-125.05" font-family="Courier,monospace" font-size="11.00" fill="#cdd6f4">b</text>
<polyline fill="none" stroke="#89b4fa" points="379,-111 379,-146.5"/>
<text xml:space="preserve" text-anchor="middle" x="424.12" y="-125.05" font-family="Courier,monospace" font-size="11.00" fill="#cdd6f4">data=0.5085</text>
<polyline fill="none" stroke="#89b4fa" points="469.25,-111 469.25,-146.5"/>
<text xml:space="preserve" text-anchor="middle" x="517.75" y="-125.05" font-family="Courier,monospace" font-size="11.00" fill="#cdd6f4">grad=&#45;0.5759</text>
</g>
<!-- 1387435552592&#45;&gt;1387435553872+ -->
<g id="edge33" class="edge">
<title>1387435552592&#45;&gt;1387435553872+</title>
<path fill="none" stroke="#89dceb" stroke-width="1.2" d="M566.72,-124.27C577.5,-123.83 587.87,-123.41 597.15,-123.03"/>
<polygon fill="#89dceb" stroke="#89dceb" stroke-width="1.2" points="596.97,-126.54 606.82,-122.64 596.69,-119.55 596.97,-126.54"/>
</g>
<!-- 1387435554768 -->
<g id="node46" class="node">
<title>1387435554768</title>
<polygon fill="#313244" stroke="#89b4fa" points="2460.88,-186.5 2460.88,-222.5 2641.38,-222.5 2641.38,-186.5 2460.88,-186.5"/>
<text xml:space="preserve" text-anchor="middle" x="2506" y="-201.05" font-family="Courier,monospace" font-size="11.00" fill="#cdd6f4">data=1.4189</text>
<polyline fill="none" stroke="#89b4fa" points="2551.12,-187 2551.12,-222.5"/>
<text xml:space="preserve" text-anchor="middle" x="2596.25" y="-201.05" font-family="Courier,monospace" font-size="11.00" fill="#cdd6f4">grad=1.8378</text>
</g>
<!-- 1387435554768&#45;&gt;1387435555280+ -->
<g id="edge43" class="edge">
<title>1387435554768&#45;&gt;1387435555280+</title>
<path fill="none" stroke="#89dceb" stroke-width="1.2" d="M2641.62,-220.13C2651.43,-221.84 2660.97,-223.51 2669.58,-225.01"/>
<polygon fill="#89dceb" stroke="#89dceb" stroke-width="1.2" points="2668.84,-228.43 2679.29,-226.71 2670.04,-221.54 2668.84,-228.43"/>
</g>
<!-- 1387435554768+&#45;&gt;1387435554768 -->
<g id="edge17" class="edge">
<title>1387435554768+&#45;&gt;1387435554768</title>
<path fill="none" stroke="#a6e3a1" stroke-width="1.5" d="M2421.73,-204.5C2429.57,-204.5 2438.68,-204.5 2448.36,-204.5"/>
<polygon fill="#a6e3a1" stroke="#a6e3a1" stroke-width="1.5" points="2448.13,-208 2458.13,-204.5 2448.13,-201 2448.13,-208"/>
</g>
</g>
</svg>
